<svg width="194" height="19" viewBox="0 0 194 19" fill="none" xmlns="http://www.w3.org/2000/svg">
<path d="M11.984 6.956L12.248 5.684C12.824 3.092 11.864 0.931999 8.888 0.931999C5.768 0.931999 3.896 2.924 3.344 5.372L1.376 14.3C0.824 16.748 1.832 18.74 4.952 18.74C7.928 18.74 9.8 16.748 10.352 14.3L10.784 12.308H7.808L7.352 14.396C7.088 15.524 6.608 16.148 5.528 16.148C4.328 16.148 4.064 15.524 4.352 14.228L6.32 5.444C6.608 4.148 7.112 3.524 8.312 3.524C9.08 3.524 9.632 4.148 9.296 5.612L9.008 6.956H11.984ZM21.876 14.3C21.324 16.748 22.332 18.74 25.452 18.74C28.572 18.74 30.444 16.748 30.996 14.3L32.964 5.372C33.516 2.924 32.508 0.931999 29.388 0.931999C26.268 0.931999 24.396 2.924 23.844 5.372L21.876 14.3ZM26.82 5.444C27.108 4.148 27.612 3.524 28.812 3.524C30.012 3.524 30.276 4.148 29.988 5.444L28.02 14.228C27.732 15.524 27.228 16.148 26.028 16.148C24.828 16.148 24.564 15.524 24.852 14.228L26.82 5.444ZM42.4 14.132C41.752 17.108 43.12 18.74 45.952 18.74C48.784 18.74 50.872 17.108 51.52 14.132L54.4 1.172H51.424L48.52 14.252C48.232 15.524 47.608 16.148 46.528 16.148C45.448 16.148 45.064 15.524 45.352 14.252L48.256 1.172H45.28L42.4 14.132ZM68.204 3.62H69.26C70.868 3.62 71.348 4.22 70.892 6.284C70.436 8.348 69.692 8.948 68.084 8.948H67.028L68.204 3.62ZM66.5 11.396C67.028 11.396 67.652 11.372 68.036 11.324L68.564 18.5H71.588L70.796 10.652C71.924 10.196 73.244 9.068 73.868 6.284C74.684 2.588 73.292 1.172 69.956 1.172H65.78L61.94 18.5H64.916L66.5 11.396ZM89.376 4.628H89.424L88.944 12.068H86.544L89.376 4.628ZM85.536 14.66H88.8L88.488 18.5H91.368L92.016 1.172H88.32L81.288 18.5H84.168L85.536 14.66ZM107.124 12.068H109.02L108.66 13.748C108.276 15.476 107.7 16.148 106.5 16.148C105.468 16.148 105.252 15.428 105.516 14.324L107.484 5.42C107.796 3.956 108.492 3.524 109.212 3.524C110.388 3.524 110.772 4.196 110.196 6.788H113.028L113.268 5.684C113.844 3.092 112.836 0.931999 109.86 0.931999C106.932 0.931999 105.06 2.924 104.508 5.372L102.54 14.3C101.916 17.06 103.188 18.74 105.54 18.74C106.932 18.74 107.748 18.26 108.876 17.204L109.14 18.5H110.58L112.524 9.716H107.652L107.124 12.068ZM130.408 18.5L130.984 15.908H125.656L126.784 10.82H130.624L131.2 8.228H127.36L128.344 3.764H133.336L133.912 1.172H125.944L122.104 18.5H130.408ZM142.204 14.3C141.652 16.748 142.66 18.74 145.78 18.74C148.9 18.74 150.772 16.748 151.324 14.3L153.292 5.372C153.844 2.924 152.836 0.931999 149.716 0.931999C146.596 0.931999 144.724 2.924 144.172 5.372L142.204 14.3ZM147.148 5.444C147.436 4.148 147.94 3.524 149.14 3.524C150.34 3.524 150.604 4.148 150.316 5.444L148.348 14.228C148.06 15.524 147.556 16.148 146.356 16.148C145.156 16.148 144.892 15.524 145.18 14.228L147.148 5.444ZM162.728 14.132C162.08 17.108 163.448 18.74 166.28 18.74C169.112 18.74 171.2 17.108 171.848 14.132L174.728 1.172H171.752L168.848 14.252C168.56 15.524 167.936 16.148 166.856 16.148C165.776 16.148 165.392 15.524 165.68 14.252L168.584 1.172H165.608L162.728 14.132ZM193.476 5.132C193.764 2.684 192.708 0.931999 190.284 0.931999C187.356 0.931999 185.34 2.492 184.716 5.252C183.612 10.22 189.468 11.132 188.7 14.564C188.484 15.596 187.668 16.148 186.636 16.148C185.676 16.148 185.172 15.284 185.436 13.532L182.508 13.94C182.052 16.532 183.156 18.74 185.916 18.74C188.7 18.74 190.956 17.156 191.604 14.3C192.636 9.596 186.9 8.18 187.572 5.228C187.812 4.148 188.46 3.524 189.42 3.524C190.092 3.524 190.788 3.956 190.596 5.444L193.476 5.132Z" fill="black"/>
</svg>
