<svg width="242" height="40" viewBox="0 0 242 40" fill="none" xmlns="http://www.w3.org/2000/svg">
<path d="M60.416 14.816C60.416 15.104 60.384 15.416 60.32 15.752C60.272 16.088 60.16 16.656 59.984 17.456H57.008C57.088 17.104 57.168 16.744 57.248 16.376C57.344 15.992 57.392 15.64 57.392 15.32C57.392 14.904 57.296 14.584 57.104 14.36C56.928 14.136 56.664 14.024 56.312 14.024C55.752 14.024 55.32 14.16 55.016 14.432C54.712 14.704 54.48 15.2 54.32 15.92L52.352 24.728C52.288 25 52.256 25.272 52.256 25.544C52.256 25.944 52.352 26.232 52.544 26.408C52.752 26.568 53.08 26.648 53.528 26.648C54.072 26.648 54.48 26.496 54.752 26.192C55.04 25.888 55.24 25.456 55.352 24.896L55.808 22.808H58.784L58.4 24.608C58.096 26.032 57.472 27.16 56.528 27.992C55.584 28.824 54.392 29.24 52.952 29.24C51.768 29.24 50.848 28.96 50.192 28.4C49.552 27.824 49.232 27.032 49.232 26.024C49.232 25.72 49.28 25.32 49.376 24.824L51.344 15.896C51.648 14.536 52.288 13.456 53.264 12.656C54.24 11.84 55.448 11.432 56.888 11.432C58.008 11.432 58.872 11.736 59.48 12.344C60.104 12.936 60.416 13.76 60.416 14.816Z" fill="#B59343"/>
<path d="M81.108 14.648C81.108 15.032 81.052 15.472 80.94 15.968L79.044 24.608C78.724 26.08 78.068 27.224 77.076 28.04C76.084 28.84 74.868 29.24 73.428 29.24C72.26 29.24 71.348 28.96 70.692 28.4C70.052 27.84 69.732 27.048 69.732 26.024C69.732 25.592 69.78 25.176 69.876 24.776L71.82 15.968C72.124 14.592 72.756 13.496 73.716 12.68C74.692 11.848 75.908 11.432 77.364 11.432C78.58 11.432 79.508 11.712 80.148 12.272C80.788 12.832 81.108 13.624 81.108 14.648ZM72.756 25.544C72.756 25.928 72.852 26.208 73.044 26.384C73.252 26.56 73.572 26.648 74.004 26.648C74.564 26.648 74.996 26.504 75.3 26.216C75.62 25.928 75.86 25.432 76.02 24.728L77.988 15.968C78.052 15.648 78.084 15.368 78.084 15.128C78.084 14.744 77.98 14.464 77.772 14.288C77.564 14.112 77.236 14.024 76.788 14.024C76.244 14.024 75.812 14.176 75.492 14.48C75.188 14.768 74.956 15.288 74.796 16.04L72.876 24.656C72.796 25.008 72.756 25.304 72.756 25.544Z" fill="#B59343"/>
<path d="M93.256 25.472C93.256 26.256 93.68 26.648 94.528 26.648C95.584 26.648 96.24 26.032 96.496 24.8L99.424 11.672H102.4L99.472 24.776C99.168 26.136 98.528 27.224 97.552 28.04C96.576 28.84 95.376 29.24 93.952 29.24C92.752 29.24 91.832 28.96 91.192 28.4C90.552 27.84 90.232 27.04 90.232 26C90.232 25.568 90.288 25.112 90.4 24.632L93.28 11.672H96.256L93.328 24.848C93.28 25.056 93.256 25.264 93.256 25.472Z" fill="#B59343"/>
<path d="M122.084 14.96C122.084 15.776 121.956 16.608 121.7 17.456C121.46 18.304 121.092 19.064 120.596 19.736C120.1 20.408 119.5 20.88 118.796 21.152L119.588 29H116.564L116.036 21.824C115.812 21.872 115.3 21.896 114.5 21.896L112.916 29H109.94L113.78 11.672H118.076C119.42 11.672 120.42 11.944 121.076 12.488C121.748 13.016 122.084 13.84 122.084 14.96ZM116.228 19.448C116.788 19.448 117.26 19.328 117.644 19.088C118.044 18.832 118.332 18.48 118.508 18.032C118.876 17.104 119.06 16.28 119.06 15.56C119.06 15.032 118.916 14.664 118.628 14.456C118.356 14.232 117.884 14.12 117.212 14.12H116.204L115.028 19.448H116.228Z" fill="#B59343"/>
<path d="M136.488 29L136.8 25.16H133.536L132.168 29H129.288L136.32 11.672H140.016L139.368 29H136.488ZM136.944 22.568L137.424 15.128H137.376L134.544 22.568H136.944Z" fill="#B59343"/>
<path d="M161.412 14.864C161.412 15.264 161.364 15.696 161.268 16.16L161.028 17.288H158.196C158.372 16.44 158.46 15.808 158.46 15.392C158.46 14.896 158.364 14.544 158.172 14.336C157.98 14.128 157.66 14.024 157.212 14.024C156.78 14.024 156.412 14.184 156.108 14.504C155.82 14.824 155.612 15.288 155.484 15.896L153.516 24.824C153.452 25.144 153.42 25.392 153.42 25.568C153.42 25.952 153.508 26.232 153.684 26.408C153.86 26.568 154.148 26.648 154.548 26.648C155.604 26.648 156.284 25.936 156.588 24.512L157.02 22.568H155.124L155.652 20.216H160.524L158.58 29H157.14L156.876 27.704C156.268 28.296 155.716 28.704 155.22 28.928C154.724 29.136 154.164 29.24 153.54 29.24C152.564 29.24 151.788 28.96 151.212 28.4C150.652 27.84 150.372 27.072 150.372 26.096C150.372 25.744 150.42 25.344 150.516 24.896L152.508 15.896C152.812 14.552 153.444 13.472 154.404 12.656C155.364 11.84 156.516 11.432 157.86 11.432C158.996 11.432 159.868 11.736 160.476 12.344C161.1 12.936 161.412 13.776 161.412 14.864Z" fill="#B59343"/>
<path d="M176.344 14.264L175.36 18.728H179.2L178.624 21.32H174.784L173.656 26.408H178.984L178.408 29H170.104L173.944 11.672H181.912L181.336 14.264H176.344Z" fill="#B59343"/>
<path d="M201.436 14.648C201.436 15.032 201.38 15.472 201.268 15.968L199.372 24.608C199.052 26.08 198.396 27.224 197.404 28.04C196.412 28.84 195.196 29.24 193.756 29.24C192.588 29.24 191.676 28.96 191.02 28.4C190.38 27.84 190.06 27.048 190.06 26.024C190.06 25.592 190.108 25.176 190.204 24.776L192.148 15.968C192.452 14.592 193.084 13.496 194.044 12.68C195.02 11.848 196.236 11.432 197.692 11.432C198.908 11.432 199.836 11.712 200.476 12.272C201.116 12.832 201.436 13.624 201.436 14.648ZM193.084 25.544C193.084 25.928 193.18 26.208 193.372 26.384C193.58 26.56 193.9 26.648 194.332 26.648C194.892 26.648 195.324 26.504 195.628 26.216C195.948 25.928 196.188 25.432 196.348 24.728L198.316 15.968C198.38 15.648 198.412 15.368 198.412 15.128C198.412 14.744 198.308 14.464 198.1 14.288C197.892 14.112 197.564 14.024 197.116 14.024C196.572 14.024 196.14 14.176 195.82 14.48C195.516 14.768 195.284 15.288 195.124 16.04L193.204 24.656C193.124 25.008 193.084 25.304 193.084 25.544Z" fill="#B59343"/>
<path d="M213.584 25.472C213.584 26.256 214.008 26.648 214.856 26.648C215.912 26.648 216.568 26.032 216.824 24.8L219.752 11.672H222.728L219.8 24.776C219.496 26.136 218.856 27.224 217.88 28.04C216.904 28.84 215.704 29.24 214.28 29.24C213.08 29.24 212.16 28.96 211.52 28.4C210.88 27.84 210.56 27.04 210.56 26C210.56 25.568 210.616 25.112 210.728 24.632L213.608 11.672H216.584L213.656 24.848C213.608 25.056 213.584 25.264 213.584 25.472Z" fill="#B59343"/>
<path d="M241.524 14.864L241.476 15.632L238.596 15.944C238.628 15.848 238.644 15.68 238.644 15.44C238.644 14.992 238.532 14.648 238.308 14.408C238.084 14.152 237.788 14.024 237.42 14.024C236.844 14.024 236.38 14.256 236.028 14.72C235.676 15.168 235.5 15.664 235.5 16.208C235.5 16.672 235.652 17.136 235.956 17.6C236.276 18.048 236.828 18.672 237.612 19.472C238.412 20.304 238.964 21.048 239.268 21.704C239.572 22.344 239.724 23 239.724 23.672C239.724 24.632 239.484 25.536 239.004 26.384C238.54 27.232 237.868 27.92 236.988 28.448C236.108 28.976 235.084 29.24 233.916 29.24C232.844 29.24 231.988 28.904 231.348 28.232C230.724 27.56 230.412 26.656 230.412 25.52C230.412 25.152 230.444 24.792 230.508 24.44L233.436 24.032C233.388 24.336 233.364 24.632 233.364 24.92C233.364 25.464 233.476 25.888 233.7 26.192C233.924 26.496 234.244 26.648 234.66 26.648C235.316 26.648 235.828 26.448 236.196 26.048C236.58 25.648 236.772 25.112 236.772 24.44C236.772 23.608 236.276 22.696 235.284 21.704C234.484 20.904 233.884 20.216 233.484 19.64C233.084 19.064 232.828 18.584 232.716 18.2C232.62 17.816 232.572 17.4 232.572 16.952C232.572 16.04 232.78 15.16 233.196 14.312C233.628 13.464 234.268 12.776 235.116 12.248C235.98 11.704 237.036 11.432 238.284 11.432C239.308 11.432 240.1 11.736 240.66 12.344C241.236 12.936 241.524 13.776 241.524 14.864Z" fill="#B59343"/>
<path d="M40 20C40 31.0457 31.0457 40 20 40C8.9543 40 0 31.0457 0 20C0 8.9543 8.9543 0 20 0C31.0457 0 40 8.9543 40 20Z" fill="#B59444"/>
<path d="M27.6594 20.7961L27.6849 27.3627C27.6849 27.4775 27.6776 27.5842 27.6667 27.6949V28.3594C27.6667 29.2658 27.0141 30 26.2083 30H25.625C25.5849 30 25.5448 29.9631 25.5047 29.9959C25.4536 29.9631 25.4026 30 25.3516 30H23.2917C22.4859 30 21.8333 29.2658 21.8333 28.3594V24.75C21.8333 24.024 21.312 23.4375 20.6667 23.4375H18.3333C17.688 23.4375 17.1667 24.024 17.1667 24.75V28.3594C17.1667 29.2658 16.5141 30 15.7083 30H13.6703C13.6156 30 13.5609 29.9959 13.5063 29.9918C13.4625 29.9959 13.4188 30 13.375 30H12.7917C11.9863 30 11.3333 29.2658 11.3333 28.3594V23.7656C11.3333 23.7287 11.3344 23.6877 11.3366 23.6508V20.7961H10.1685C9.51115 20.7961 9 20.2178 9 19.4795C9 19.1104 9.10952 18.7822 9.36495 18.4951L18.7125 9.32878C18.9677 9.0411 19.2594 9 19.5146 9C19.7698 9 20.0615 9.0822 20.2839 9.28768L24.1667 13.1303V11.625C24.1667 10.9003 24.688 10.3125 25.3333 10.3125H26.5C27.1453 10.3125 27.6667 10.9003 27.6667 11.625V16.5879L29.5917 18.4951C29.8833 18.7822 30.0328 19.1104 29.9927 19.4795C29.9927 20.2178 29.4458 20.7961 28.826 20.7961H27.6594Z" fill="white"/>
</svg>
