<svg width="9" height="9" viewBox="0 0 9 9" fill="none" xmlns="http://www.w3.org/2000/svg">
<path d="M3.24513 4.36929L0.134933 0H1.94303C2.06897 0 2.15892 0.0165975 2.21289 0.0497926C2.27136 0.0788381 2.32309 0.128631 2.36807 0.199171L4.58771 3.50415C4.6102 3.45021 4.63493 3.39834 4.66192 3.34855C4.68891 3.29461 4.72039 3.24066 4.75637 3.18672L6.78711 0.230291C6.88606 0.0767636 7.01424 0 7.17166 0H8.91229L5.76837 4.30083L9 9H7.18516C7.06372 9 6.96477 8.97095 6.88831 8.91286C6.81634 8.85477 6.75562 8.78838 6.70615 8.71369L4.44603 5.26556C4.42804 5.31535 4.4078 5.36307 4.38531 5.40871C4.36282 5.45021 4.34033 5.48963 4.31784 5.52697L2.15217 8.71369C2.1027 8.78423 2.04198 8.85062 1.97001 8.91286C1.89805 8.97095 1.8081 9 1.70015 9H0L3.24513 4.36929Z" fill="#B59444"/>
</svg>
