<svg width="193" height="18" viewBox="0 0 193 18" fill="none" xmlns="http://www.w3.org/2000/svg">
<path d="M11.184 3.384C11.184 3.672 11.152 3.984 11.088 4.32C11.04 4.656 10.928 5.224 10.752 6.024H7.776C7.856 5.672 7.936 5.312 8.016 4.944C8.112 4.56 8.16 4.208 8.16 3.888C8.16 3.472 8.064 3.152 7.872 2.928C7.696 2.704 7.432 2.592 7.08 2.592C6.52 2.592 6.088 2.728 5.784 3C5.48 3.272 5.248 3.768 5.088 4.488L3.12 13.296C3.056 13.568 3.024 13.84 3.024 14.112C3.024 14.512 3.12 14.8 3.312 14.976C3.52 15.136 3.848 15.216 4.296 15.216C4.84 15.216 5.248 15.064 5.52 14.76C5.808 14.456 6.008 14.024 6.12 13.464L6.576 11.376H9.552L9.168 13.176C8.864 14.6 8.24 15.728 7.296 16.56C6.352 17.392 5.16 17.808 3.72 17.808C2.536 17.808 1.616 17.528 0.96 16.968C0.32 16.392 0 15.6 0 14.592C0 14.288 0.048 13.888 0.144 13.392L2.112 4.464C2.416 3.104 3.056 2.024 4.032 1.224C5.008 0.408 6.216 0 7.656 0C8.776 0 9.64 0.304 10.248 0.912001C10.872 1.504 11.184 2.328 11.184 3.384Z" fill="#B59343"/>
<path d="M31.876 3.216C31.876 3.6 31.82 4.04 31.708 4.536L29.812 13.176C29.492 14.648 28.836 15.792 27.844 16.608C26.852 17.408 25.636 17.808 24.196 17.808C23.028 17.808 22.116 17.528 21.46 16.968C20.82 16.408 20.5 15.616 20.5 14.592C20.5 14.16 20.548 13.744 20.644 13.344L22.588 4.536C22.892 3.16 23.524 2.064 24.484 1.248C25.46 0.416 26.676 0 28.132 0C29.348 0 30.276 0.28 30.916 0.840001C31.556 1.4 31.876 2.192 31.876 3.216ZM23.524 14.112C23.524 14.496 23.62 14.776 23.812 14.952C24.02 15.128 24.34 15.216 24.772 15.216C25.332 15.216 25.764 15.072 26.068 14.784C26.388 14.496 26.628 14 26.788 13.296L28.756 4.536C28.82 4.216 28.852 3.936 28.852 3.696C28.852 3.312 28.748 3.032 28.54 2.856C28.332 2.68 28.004 2.592 27.556 2.592C27.012 2.592 26.58 2.744 26.26 3.048C25.956 3.336 25.724 3.856 25.564 4.608L23.644 13.224C23.564 13.576 23.524 13.872 23.524 14.112Z" fill="#B59343"/>
<path d="M44.024 14.04C44.024 14.824 44.448 15.216 45.296 15.216C46.352 15.216 47.008 14.6 47.264 13.368L50.192 0.24H53.168L50.24 13.344C49.936 14.704 49.296 15.792 48.32 16.608C47.344 17.408 46.144 17.808 44.72 17.808C43.52 17.808 42.6 17.528 41.96 16.968C41.32 16.408 41 15.608 41 14.568C41 14.136 41.056 13.68 41.168 13.2L44.048 0.24H47.024L44.096 13.416C44.048 13.624 44.024 13.832 44.024 14.04Z" fill="#B59343"/>
<path d="M72.852 3.528C72.852 4.344 72.724 5.176 72.468 6.024C72.228 6.872 71.86 7.632 71.364 8.304C70.868 8.976 70.268 9.448 69.564 9.72L70.356 17.568H67.332L66.804 10.392C66.58 10.44 66.068 10.464 65.268 10.464L63.684 17.568H60.708L64.548 0.24H68.844C70.188 0.24 71.188 0.512 71.844 1.056C72.516 1.584 72.852 2.408 72.852 3.528ZM66.996 8.016C67.556 8.016 68.028 7.896 68.412 7.656C68.812 7.4 69.1 7.048 69.276 6.6C69.644 5.672 69.828 4.848 69.828 4.128C69.828 3.6 69.684 3.232 69.396 3.024C69.124 2.8 68.652 2.688 67.98 2.688H66.972L65.796 8.016H66.996Z" fill="#B59343"/>
<path d="M87.256 17.568L87.568 13.728H84.304L82.936 17.568H80.056L87.088 0.24H90.784L90.136 17.568H87.256ZM87.712 11.136L88.192 3.696H88.144L85.312 11.136H87.712Z" fill="#B59343"/>
<path d="M112.18 3.432C112.18 3.832 112.132 4.264 112.036 4.728L111.796 5.856H108.964C109.14 5.008 109.228 4.376 109.228 3.96C109.228 3.464 109.132 3.112 108.94 2.904C108.748 2.696 108.428 2.592 107.98 2.592C107.548 2.592 107.18 2.752 106.876 3.072C106.588 3.392 106.38 3.856 106.252 4.464L104.284 13.392C104.22 13.712 104.188 13.96 104.188 14.136C104.188 14.52 104.276 14.8 104.452 14.976C104.628 15.136 104.916 15.216 105.316 15.216C106.372 15.216 107.052 14.504 107.356 13.08L107.788 11.136H105.892L106.42 8.784H111.292L109.348 17.568H107.908L107.644 16.272C107.036 16.864 106.484 17.272 105.988 17.496C105.492 17.704 104.932 17.808 104.308 17.808C103.332 17.808 102.556 17.528 101.98 16.968C101.42 16.408 101.14 15.64 101.14 14.664C101.14 14.312 101.188 13.912 101.284 13.464L103.276 4.464C103.58 3.12 104.212 2.04 105.172 1.224C106.132 0.408 107.284 0 108.628 0C109.764 0 110.636 0.304 111.244 0.912001C111.868 1.504 112.18 2.344 112.18 3.432Z" fill="#B59343"/>
<path d="M127.112 2.832L126.128 7.296H129.968L129.392 9.888H125.552L124.424 14.976H129.752L129.176 17.568H120.872L124.712 0.24H132.68L132.104 2.832H127.112Z" fill="#B59343"/>
<path d="M152.204 3.216C152.204 3.6 152.148 4.04 152.036 4.536L150.14 13.176C149.82 14.648 149.164 15.792 148.172 16.608C147.18 17.408 145.964 17.808 144.524 17.808C143.356 17.808 142.444 17.528 141.788 16.968C141.148 16.408 140.828 15.616 140.828 14.592C140.828 14.16 140.876 13.744 140.972 13.344L142.916 4.536C143.22 3.16 143.852 2.064 144.812 1.248C145.788 0.416 147.004 0 148.46 0C149.676 0 150.604 0.28 151.244 0.840001C151.884 1.4 152.204 2.192 152.204 3.216ZM143.852 14.112C143.852 14.496 143.948 14.776 144.14 14.952C144.348 15.128 144.668 15.216 145.1 15.216C145.66 15.216 146.092 15.072 146.396 14.784C146.716 14.496 146.956 14 147.116 13.296L149.084 4.536C149.148 4.216 149.18 3.936 149.18 3.696C149.18 3.312 149.076 3.032 148.868 2.856C148.66 2.68 148.332 2.592 147.884 2.592C147.34 2.592 146.908 2.744 146.588 3.048C146.284 3.336 146.052 3.856 145.892 4.608L143.972 13.224C143.892 13.576 143.852 13.872 143.852 14.112Z" fill="#B59343"/>
<path d="M164.352 14.04C164.352 14.824 164.776 15.216 165.624 15.216C166.68 15.216 167.336 14.6 167.592 13.368L170.52 0.24H173.496L170.568 13.344C170.264 14.704 169.624 15.792 168.648 16.608C167.672 17.408 166.472 17.808 165.048 17.808C163.848 17.808 162.928 17.528 162.288 16.968C161.648 16.408 161.328 15.608 161.328 14.568C161.328 14.136 161.384 13.68 161.496 13.2L164.376 0.24H167.352L164.424 13.416C164.376 13.624 164.352 13.832 164.352 14.04Z" fill="#B59343"/>
<path d="M192.292 3.432L192.244 4.2L189.364 4.512C189.396 4.416 189.412 4.248 189.412 4.008C189.412 3.56 189.3 3.216 189.076 2.976C188.852 2.72 188.556 2.592 188.188 2.592C187.612 2.592 187.148 2.824 186.796 3.288C186.444 3.736 186.268 4.232 186.268 4.776C186.268 5.24 186.42 5.704 186.724 6.168C187.044 6.616 187.596 7.24 188.38 8.04C189.18 8.872 189.732 9.616 190.036 10.272C190.34 10.912 190.492 11.568 190.492 12.24C190.492 13.2 190.252 14.104 189.772 14.952C189.308 15.8 188.636 16.488 187.756 17.016C186.876 17.544 185.852 17.808 184.684 17.808C183.612 17.808 182.756 17.472 182.116 16.8C181.492 16.128 181.18 15.224 181.18 14.088C181.18 13.72 181.212 13.36 181.276 13.008L184.204 12.6C184.156 12.904 184.132 13.2 184.132 13.488C184.132 14.032 184.244 14.456 184.468 14.76C184.692 15.064 185.012 15.216 185.428 15.216C186.084 15.216 186.596 15.016 186.964 14.616C187.348 14.216 187.54 13.68 187.54 13.008C187.54 12.176 187.044 11.264 186.052 10.272C185.252 9.472 184.652 8.784 184.252 8.208C183.852 7.632 183.596 7.152 183.484 6.768C183.388 6.384 183.34 5.968 183.34 5.52C183.34 4.608 183.548 3.728 183.964 2.88C184.396 2.032 185.036 1.344 185.884 0.816001C186.748 0.272 187.804 0 189.052 0C190.076 0 190.868 0.304 191.428 0.912001C192.004 1.504 192.292 2.344 192.292 3.432Z" fill="#B59343"/>
</svg>
