<svg width="24" height="22" viewBox="0 0 24 22" fill="none" xmlns="http://www.w3.org/2000/svg">
<path d="M21.3259 12.3578L21.3551 19.2371C21.3551 19.3574 21.3467 19.4691 21.3342 19.5852V20.2812C21.3342 21.2309 20.5884 22 19.6675 22H19.0008C18.955 22 18.9091 21.9613 18.8633 21.9957C18.8049 21.9613 18.7466 22 18.6883 22H16.334C15.4131 22 14.6673 21.2309 14.6673 20.2812V16.5C14.6673 15.7395 14.0714 15.125 13.3339 15.125H10.6671C9.92958 15.125 9.33372 15.7395 9.33372 16.5V20.2812C9.33372 21.2309 8.58786 22 7.66698 22H5.33772C5.27522 22 5.21272 21.9957 5.15021 21.9914C5.10021 21.9957 5.05021 22 5.00021 22H4.33351C3.41306 22 2.66678 21.2309 2.66678 20.2812V15.4688C2.66678 15.4301 2.66803 15.3871 2.67053 15.3484V12.3578H1.33547C0.584191 12.3578 0 11.752 0 10.9785C0 10.5918 0.125172 10.248 0.417101 9.94727L11.1005 0.344437C11.3921 0.0430547 11.7255 0 12.0172 0C12.3088 0 12.6422 0.0861094 12.8964 0.301383L17.3341 4.32695V2.75C17.3341 1.99074 17.9299 1.375 18.6674 1.375H20.0008C20.7384 1.375 21.3342 1.99074 21.3342 2.75V7.94922L23.5343 9.94727C23.8677 10.248 24.0385 10.5918 23.9927 10.9785C23.9927 11.752 23.3676 12.3578 22.6593 12.3578H21.3259Z" fill="white"/>
</svg>
