<svg width="30" height="30" viewBox="0 0 30 30" fill="none" xmlns="http://www.w3.org/2000/svg">
<path d="M12.7401 0C8.66124 0.00195291 4.82855 1.95696 2.43081 5.25975C0.0350663 8.5604 -0.636572 12.8119 0.62473 16.6927C1.88603 20.5734 4.92807 23.6144 8.80765 24.8758C12.6892 26.1355 16.9381 25.4618 20.2375 23.0634L26.585 29.4126C27.366 30.1958 28.6332 30.1958 29.4142 29.4126C30.1953 28.6314 30.1953 27.3658 29.4142 26.5847L23.0667 20.2355V20.2335C24.9216 17.6848 25.7631 14.5383 25.4332 11.4039C25.1032 8.26931 23.6232 5.3672 21.2783 3.26179C18.9333 1.15449 15.8915 -0.00760264 12.74 0.00024699L12.7401 0ZM12.7401 21.499C10.4205 21.499 8.19459 20.5771 6.55451 18.9366C4.91443 17.2961 3.99282 15.0696 3.99282 12.7494C3.99282 10.4292 4.91443 8.20272 6.55451 6.56219C8.19459 4.92167 10.4205 3.99981 12.7401 3.99981C15.0596 3.99981 17.2855 4.92167 18.9256 6.56219C20.5657 8.20272 21.4873 10.4292 21.4873 12.7494C21.4853 15.0696 20.5618 17.2921 18.9217 18.9326C17.2816 20.5731 15.0596 21.4969 12.7402 21.4989L12.7401 21.499Z" fill="#A5A5A5"/>
</svg>
