<svg width="30" height="30" viewBox="0 0 30 30" fill="none" xmlns="http://www.w3.org/2000/svg">
<path d="M20.6246 16.2504V15C20.6246 13.9371 19.8125 13.125 18.7496 13.125H6.875C5.8121 13.125 5 13.9371 5 15V21.2496C5 22.2492 5.8121 23.1246 6.875 23.1246H18.7496C19.8125 23.1246 20.6246 22.2492 20.6246 21.2496V19.9992L24.9992 23.1246V13.125L20.6246 16.2504Z" fill="black"/>
<path d="M11.874 9.06213C11.874 10.616 10.6154 11.8746 9.06152 11.8746C7.50878 11.8746 6.24902 10.616 6.24902 9.06213C6.24902 7.50939 7.50878 6.24963 9.06152 6.24963C10.6154 6.24963 11.874 7.50939 11.874 9.06213Z" fill="black"/>
<path d="M19.374 9.06213C19.374 10.616 18.1154 11.8746 16.5615 11.8746C15.0088 11.8746 13.749 10.616 13.749 9.06213C13.749 7.50939 15.0088 6.24963 16.5615 6.24963C18.1154 6.24963 19.374 7.50939 19.374 9.06213Z" fill="black"/>
</svg>
