<svg width="20" height="17" viewBox="0 0 20 17" fill="none" xmlns="http://www.w3.org/2000/svg">
<path d="M15.6246 10.0008V8.7504C15.6246 7.6875 14.8125 6.8754 13.7496 6.8754H1.875C0.8121 6.8754 0 7.6875 0 8.7504V15C0 15.9996 0.8121 16.875 1.875 16.875H13.7496C14.8125 16.875 15.6246 15.9996 15.6246 15V13.7496L19.9992 16.875V6.8754L15.6246 10.0008Z" fill="white"/>
<path d="M6.87402 2.8125C6.87402 4.36641 5.61543 5.625 4.06152 5.625C2.50878 5.625 1.24902 4.36641 1.24902 2.8125C1.24902 1.25976 2.50878 0 4.06152 0C5.61543 0 6.87402 1.25976 6.87402 2.8125Z" fill="white"/>
<path d="M14.374 2.8125C14.374 4.36641 13.1154 5.625 11.5615 5.625C10.0088 5.625 8.74902 4.36641 8.74902 2.8125C8.74902 1.25976 10.0088 0 11.5615 0C13.1154 0 14.374 1.25976 14.374 2.8125Z" fill="white"/>
</svg>
