<svg width="23" height="22" viewBox="0 0 23 22" fill="none" xmlns="http://www.w3.org/2000/svg">
<path d="M12.7401 19.5377L12.3034 18.2961C11.9818 18.8253 11.6134 19.3077 11.2226 19.7677C11.1993 19.8136 11.1535 19.8369 11.131 19.8827C10.9702 19.8827 10.8094 19.9061 10.6476 19.9061H10.1643C10.1409 19.8603 10.0951 19.8369 10.0726 19.7911C9.12924 18.7103 8.34761 17.3996 7.81843 15.9269C8.73843 15.7427 9.6818 15.6511 10.67 15.6511C10.9233 15.6511 11.1758 15.6511 11.4292 15.6744L10.9925 14.386H10.6933C9.5667 14.386 8.48497 14.501 7.44988 14.7077C7.17406 13.6727 6.98988 12.5685 6.94406 11.3961H9.95752L9.75088 10.7978C9.6817 10.5911 9.63588 10.3611 9.63588 10.1311L6.89842 10.1302C6.94424 8.98024 7.10506 7.87606 7.40423 6.8187C8.43923 7.02534 9.52005 7.14033 10.6477 7.14033C11.7519 7.14033 12.8561 7.02533 13.8912 6.8187C14.0978 7.55452 14.2362 8.33707 14.3278 9.14216L15.6386 9.60216C15.5694 8.54379 15.3852 7.50879 15.1328 6.52062C16.122 6.24481 17.0644 5.85399 17.9386 5.39399C17.9619 5.37063 18.0077 5.37063 18.0302 5.34817C19.0194 6.7048 19.6636 8.33817 19.7786 10.1324H17.1793L20.8828 11.4208C20.9286 11.4441 20.9978 11.4666 21.0436 11.4899C21.067 11.2599 21.067 11.0066 21.067 10.7541C21.067 5.00413 16.3977 0.3349 10.6477 0.3349C4.9212 0.3349 0.228516 5.00413 0.228516 10.7541C0.228516 16.4807 4.89775 21.1499 10.6477 21.1499C11.7519 21.1499 12.8327 20.9657 13.822 20.6441C13.3386 20.4581 12.9244 20.0439 12.7403 19.5381L12.7401 19.5377ZM17.1568 4.35774C17.1334 4.3811 17.0876 4.40356 17.0651 4.40356C16.3293 4.77193 15.5468 5.0702 14.7194 5.3002C14.2827 4.10438 13.7302 3.02356 13.0402 2.05674C13.0168 2.01092 12.971 1.9651 12.9485 1.91838C14.5801 2.33346 16.0068 3.20764 17.1568 4.35753L17.1568 4.35774ZM10.1643 1.64351C10.3251 1.64351 10.4859 1.62016 10.6477 1.62016C10.8085 1.62016 10.9693 1.62016 11.131 1.64351C11.1544 1.66687 11.2002 1.71269 11.2227 1.75851C12.1661 2.83933 12.9477 4.15005 13.4769 5.62274C12.5569 5.80692 11.6135 5.89856 10.6253 5.89856C9.63615 5.89856 8.6937 5.80692 7.77379 5.62274C8.32542 4.15111 9.08461 2.83928 10.028 1.75851C10.0954 1.71269 10.1187 1.66598 10.1645 1.64351H10.1643ZM8.32431 1.91933C8.30095 1.96515 8.25513 2.01097 8.23267 2.05769C7.54267 3.0235 6.99103 4.12769 6.55348 5.32346C5.72511 5.09346 4.94348 4.79427 4.20771 4.42683C4.18435 4.40347 4.13853 4.40347 4.11607 4.38101C5.26517 3.20764 6.71438 2.33348 8.32438 1.91932L8.32431 1.91933ZM3.28777 5.34587C3.31113 5.36923 3.35695 5.36923 3.37941 5.39169C4.25359 5.85169 5.19604 6.22006 6.18518 6.51832C5.886 7.66832 5.67936 8.86409 5.656 10.1291H1.53946C1.65446 8.33581 2.29864 6.70324 3.28782 5.34578L3.28777 5.34587ZM3.28777 16.1559C2.29858 14.7992 1.6544 13.1659 1.5394 11.3951H5.65594C5.70176 12.6367 5.88594 13.8559 6.18512 15.0059C5.19594 15.2817 4.25349 15.6725 3.37935 16.1325C3.33353 16.11 3.31018 16.1334 3.28771 16.1559L3.28777 16.1559ZM4.11524 17.1451C4.1386 17.1217 4.18442 17.1217 4.20688 17.0992C4.9427 16.7309 5.72525 16.4326 6.55265 16.2026C6.98928 17.3984 7.54183 18.4792 8.23183 19.4684C8.25519 19.5142 8.30101 19.56 8.32348 19.6067C6.71437 19.1458 5.26517 18.295 4.11517 17.145L4.11524 17.1451Z" fill="white"/>
<path d="M22.63 18.9393L18.3515 14.6608L20.4449 13.6025C20.7899 13.4183 20.7665 12.9125 20.3991 12.7741L11.6591 9.73833C11.3141 9.62333 10.9691 9.94497 11.0841 10.3133L14.1198 19.0533C14.2582 19.4217 14.764 19.4675 14.9482 19.0991L16.0066 17.0058L20.285 21.2842C20.4692 21.4684 20.745 21.4684 20.9059 21.2842L22.6309 19.5592C22.8141 19.3993 22.8141 19.1235 22.63 18.9393L22.63 18.9393Z" fill="white"/>
</svg>
