<svg width="23" height="22" viewBox="0 0 23 22" fill="none" xmlns="http://www.w3.org/2000/svg">
<path d="M12.7411 19.6484L12.3044 18.4068C11.9828 18.936 11.6144 19.4184 11.2236 19.8784C11.2002 19.9242 11.1544 19.9476 11.132 19.9934C10.9711 19.9934 10.8103 20.0168 10.6486 20.0168H10.1652C10.1419 19.9709 10.0961 19.9476 10.0736 19.9018C9.13022 18.8209 8.34859 17.5102 7.8194 16.0375C8.7394 15.8533 9.68277 15.7617 10.6709 15.7617C10.9243 15.7617 11.1768 15.7617 11.4301 15.7851L10.9935 14.4967H10.6943C9.56768 14.4967 8.48594 14.6117 7.45085 14.8183C7.17504 13.7833 6.99085 12.6792 6.94504 11.5068H9.9585L9.75185 10.9084C9.68268 10.7018 9.63686 10.4718 9.63686 10.2418L6.89939 10.2409C6.94522 9.0909 7.10604 7.98671 7.40521 6.92936C8.44021 7.136 9.52103 7.25099 10.6487 7.25099C11.7529 7.25099 12.857 7.13599 13.8921 6.92936C14.0988 7.66517 14.2371 8.44773 14.3288 9.25282L15.6396 9.71282C15.5704 8.65445 15.3862 7.61945 15.1338 6.63128C16.1229 6.35546 17.0654 5.96465 17.9395 5.50465C17.9629 5.48129 18.0087 5.48129 18.0312 5.45883C19.0204 6.81546 19.6645 8.44883 19.7795 10.2431H17.1803L20.8838 11.5314C20.9296 11.5548 20.9988 11.5772 21.0446 11.6006C21.068 11.3706 21.068 11.1172 21.068 10.8648C21.068 5.11479 16.3987 0.445557 10.6487 0.445557C4.92218 0.445557 0.229492 5.11479 0.229492 10.8648C0.229492 16.5913 4.89872 21.2606 10.6487 21.2606C11.7529 21.2606 12.8337 21.0764 13.823 20.7547C13.3396 20.5688 12.9254 20.1546 12.7412 19.6488L12.7411 19.6484ZM17.1577 4.4684C17.1344 4.49176 17.0886 4.51422 17.0661 4.51422C16.3303 4.88259 15.5477 5.18085 14.7203 5.41085C14.2837 4.21504 13.7311 3.13422 13.0411 2.16739C13.0178 2.12157 12.972 2.07575 12.9495 2.02903C14.5811 2.44412 16.0078 3.3183 17.1578 4.46818L17.1577 4.4684ZM10.1653 1.75417C10.3261 1.75417 10.4869 1.73081 10.6487 1.73081C10.8095 1.73081 10.9703 1.73081 11.132 1.75417C11.1554 1.77753 11.2012 1.82335 11.2237 1.86917C12.167 2.94999 12.9487 4.26071 13.4778 5.7334C12.5578 5.91758 11.6145 6.00922 10.6263 6.00922C9.63712 6.00922 8.69467 5.91758 7.77477 5.7334C8.3264 4.26177 9.08558 2.94994 10.0289 1.86917C10.0963 1.82335 10.1197 1.77663 10.1655 1.75417H10.1653ZM8.32528 2.02999C8.30193 2.07581 8.25611 2.12163 8.23364 2.16835C7.54364 3.13416 6.99201 4.23835 6.55446 5.43412C5.72609 5.20412 4.94446 4.90493 4.20869 4.53748C4.18533 4.51412 4.13951 4.51412 4.11705 4.49166C5.26615 3.3183 6.71536 2.44413 8.32536 2.02997L8.32528 2.02999ZM3.28874 5.45653C3.3121 5.47989 3.35792 5.47989 3.38039 5.50235C4.25457 5.96235 5.19702 6.33072 6.18616 6.62898C5.88697 7.77898 5.68034 8.97475 5.65697 10.2397H1.54043C1.65543 8.44646 2.29962 6.8139 3.2888 5.45644L3.28874 5.45653ZM3.28874 16.2665C2.29956 14.9099 1.65538 13.2765 1.54038 11.5058H5.65692C5.70274 12.7474 5.88692 13.9665 6.1861 15.1165C5.19692 15.3923 4.25447 15.7832 3.38033 16.2432C3.33451 16.2207 3.31115 16.2441 3.28869 16.2665L3.28874 16.2665ZM4.11622 17.2557C4.13957 17.2324 4.1854 17.2324 4.20786 17.2099C4.94367 16.8415 5.72622 16.5433 6.55363 16.3133C6.99026 17.5091 7.54281 18.5899 8.23281 19.579C8.25617 19.6248 8.30199 19.6707 8.32445 19.7174C6.71535 19.2565 5.26614 18.4057 4.11614 17.2557L4.11622 17.2557Z" fill="black"/>
<path d="M22.631 19.05L18.3525 14.7715L20.4459 13.7132C20.7909 13.529 20.7675 13.0232 20.4001 12.8848L11.6601 9.84901C11.3151 9.73401 10.9701 10.0557 11.0851 10.424L14.1208 19.164C14.2592 19.5324 14.765 19.5782 14.9492 19.2098L16.0076 17.1165L20.286 21.3949C20.4702 21.5791 20.746 21.5791 20.9068 21.3949L22.6318 19.6699C22.8151 19.51 22.8151 19.2342 22.6309 19.05L22.631 19.05Z" fill="black"/>
</svg>
